<svg viewBox="0 0 47 56" xmlns="http://www.w3.org/2000/svg"><g fill="none" fill-rule="evenodd"><path d="m44.19 28.45c-.092-.248-.26-.462-.48-.61-.058-.067-.111-.137-.16-.21-.201-.243-.505-.376-.82-.36-2.26-1.06-5-.93-7.25-2.13-2.95-1.51-5.27-4.8-7.87-6.88-3.69-2.94-6.26-5.7-6.63-10.67-.11-1.62-.17-5.76-2-6.64-3.62-1.71-7.18 2.73-8 5.84-1.56 6.08 3.89 9.73 4.91 14.92-.82 3.07-7.39 2.67-10.09 3.58-.775.262-1.497.662-2.13 1.18-1.382.85-2.438 2.138-3 3.66-1.21 3.86.78 6.16 3.69 7.29-2.1 1.58-.45 4.38 1.37 5.8.509.407 1.071.744 1.67 1-1.73 1.61-1.27 3.63.86 4.62.325.153.659.287 1 .4-1.12 1.59 0 3.09 1.31 4.33 2.06 2 5.29 2.43 8 2 2.223-.386 4.36-1.165 6.31-2.3 5.38-1 8.69-5.81 14.46-6.06 2.72-.12 4.62-1.88 5.91-4.13 2.44-4.37 1.81-10.64-1.06-14.63m-38.73 9.34c.89.237 1.801.391 2.72.46 3.55.28 9.81.39 12.63-2.57 5 3.18-.88 6.37-4.27 7.32-2.81.77-14.47.14-11.09-5.21h.01m3.05 9.7c-1.47-.69-.75-1.82-.18-2.85v-.09c2.628.738 5.383.902 8.08.48 2.491-.423 4.793-1.595 6.6-3.36l.13.11c3.32 2 1.55 3.68-1 5-1.779.959-3.736 1.542-5.75 1.71-1.731.086-3.466-.001-5.18-.26-.933-.119-1.846-.368-2.71-.74h.01m1.69 1.91c2.166.47 4.391.615 6.6.43 2.746-.285 5.392-1.187 7.74-2.64 4.89 8.18-16.35 9.57-14.35 2.21h.01m30.85-5c-1.78 1.28-3.12.36-4.85.85-1.215.335-2.372.854-3.43 1.54-1.93 1.19-4 2.3-6 3.53.164-1.475-.276-2.954-1.22-4.1 1.86-1.7 2.16-3.79-1.64-5.69 1.36-2 1.2-4.44-2.15-6.34 0-.06 0-.09.06-.13.79-2-1.12-4.54-3-5-3.55-1-7.24.14-10.58 1.41-.35.13-.33.71.09.68 2.21-.17 4.36-.74 6.57-.9 2-.16 7.71 1.91 4.29 4.45-.816.516-1.722.875-2.67 1.06-3.876 1.067-7.963 1.108-11.86.12-3.88-1.12-3.32-5.21-1.29-7.7.57-.663 1.285-1.187 2.09-1.53.705-.193 1.424-.334 2.15-.42 2-.24 3.94-.13 5.88-.45.746-.097 1.466-.338 2.12-.71.555-.151 1.031-.509 1.33-1 .397-.04.702-.371.71-.77.24-4.76-3.76-7.78-4.88-12.15-.384-1.624-.384-3.316 0-4.94.21-1 4.39-6.75 5.89-2.37 1 3 .27 6.16 1.51 9.15 1.72 4.21 6.57 6.77 9.72 9.76 1.81 1.73 3.23 3.43 5.44 4.69 2.21 1.26 4.89 1 7 2.52.039.029.079.055.12.08 2.78 4.16 2.72 11.46-1.45 14.39l.05-.03" fill="#000"/></g></svg>