<svg xmlns="http://www.w3.org/2000/svg" width="34" height="36" viewBox="0 0 34 36"><defs><linearGradient id="a" x1="-108.741%" y1="-15.032%" y2="97.216%"><stop offset="0%" stop-color="#FFA2A2"/><stop offset="33.881%" stop-color="#F29D72"/><stop offset="52.39%" stop-color="#FEA46B"/><stop offset="100%" stop-color="#BC1E46"/></linearGradient></defs><path fill="url(#a)" fill-rule="evenodd" d="M34.5 24c0 6.213-5.037 11.25-11.25 11.25a11.237 11.237 0 0 1-9.226-4.811l-2.02-1.01-2.331 1.162a1.5 1.5 0 0 1-1.342 0L6.004 29.43l-2.333 1.163A1.5 1.5 0 0 1 1.5 29.25V3.75c0-1.658 1.34-3 3.001-3H25.5a2.998 2.998 0 0 1 3.001 3v10.298c3.568 1.886 6 5.635 6 9.952zM25.499 3.75H4.5v23.07l.83-.412a1.5 1.5 0 0 1 1.34 0l2.345 1.17 2.314-1.17a1.5 1.5 0 0 1 .9-.14 11.3 11.3 0 0 1-.004-4.518H9.001c-.83 0-1.501-.666-1.501-1.5 0-.828.676-1.5 1.5-1.5h4.298c1.886-3.568 5.635-6 9.952-6 .772 0 1.525.078 2.254.226l-.005-9.226zM7.5 14.25c0-.828.665-1.5 1.499-1.5H12c.828 0 1.499.666 1.499 1.5 0 .828-.665 1.5-1.499 1.5H9a1.496 1.496 0 0 1-1.499-1.5zm0-6a1.5 1.5 0 0 1 1.493-1.5h12.014c.825 0 1.493.666 1.493 1.5a1.5 1.5 0 0 1-1.493 1.5H8.993A1.493 1.493 0 0 1 7.5 8.25zm15.75 24a8.25 8.25 0 1 0 0-16.5 8.25 8.25 0 0 0 0 16.5zm-2.56-3.44l-3-3a1.5 1.5 0 1 1 2.121-2.12l1.957 1.956 4.921-4.957a1.5 1.5 0 0 1 2.122 2.122l-6 6a1.5 1.5 0 0 1-2.122 0z" transform="translate(-1)"/></svg>