<svg xmlns="http://www.w3.org/2000/svg" xmlns:xlink="http://www.w3.org/1999/xlink" width="354" height="228" viewBox="0 0 354 228"><defs><linearGradient id="c" x1="50%" x2="50%" y1="0%" y2="100%"><stop offset="0%" stop-color="#F4E2BE"/><stop offset="100%" stop-color="#E2CEAC"/></linearGradient><rect id="a" width="318" height="192" rx="9"/><filter id="b" width="117.6%" height="129.2%" x="-8.8%" y="-13.5%" filterUnits="objectBoundingBox"><feOffset dy="2" in="SourceAlpha" result="shadowOffsetOuter1"/><feGaussianBlur in="shadowOffsetOuter1" result="shadowBlurOuter1" stdDeviation="9"/><feColorMatrix in="shadowBlurOuter1" values="0 0 0 0 0 0 0 0 0 0 0 0 0 0 0 0 0 0 0.15 0"/></filter><linearGradient id="d" x1="50%" x2="50%" y1="0%" y2="100%"><stop offset="0%" stop-color="#DE8666" stop-opacity=".5"/><stop offset="100%" stop-color="#A1431F" stop-opacity=".7"/></linearGradient><rect id="f" width="41.927" height="33.2" x=".767" y=".164" rx="2.95"/><linearGradient id="g" x1="81.24%" x2="27.229%" y1="52.243%" y2="54.646%"><stop offset="0%" stop-color="#E6D2B0"/><stop offset="29.113%" stop-color="#F4E2BE"/><stop offset="68.266%" stop-color="#F0DDBA"/><stop offset="100%" stop-color="#E2CEAC"/></linearGradient><path id="h" d="M0 0h318.373v2.75H0z"/><filter id="i" width="100.3%" height="172.7%" x="-.2%" y="-18.2%" filterUnits="objectBoundingBox"><feOffset dy="1" in="SourceAlpha" result="shadowOffsetOuter1"/><feColorMatrix in="shadowOffsetOuter1" values="0 0 0 0 0 0 0 0 0 0 0 0 0 0 0 0 0 0 0.2 0"/></filter><linearGradient id="j" x1="50%" x2="50%" y1="0%" y2="100%"><stop offset="0%" stop-color="#F6D8C7"/><stop offset="100%" stop-color="#DCB9A5"/></linearGradient><path id="l" d="M0 0h318.373v2.75H0z"/><filter id="m" width="100.3%" height="172.7%" x="-.2%" y="-18.2%" filterUnits="objectBoundingBox"><feOffset dy="1" in="SourceAlpha" result="shadowOffsetOuter1"/><feColorMatrix in="shadowOffsetOuter1" values="0 0 0 0 0 0 0 0 0 0 0 0 0 0 0 0 0 0 0.2 0"/></filter><path id="p" d="M16.333 166.682H14.78v7.7h1.553v-3.169h3.75v3.168h1.552v-7.7h-1.552v3.102h-3.75v-3.101zm11.478 0l3.032 7.7h-1.658l-.679-1.794h-3.321l-.68 1.793h-1.618l3.032-7.7h1.892zm-.963 1.517l-1.13 2.976h2.254l-1.124-2.976zm10.916 4.747v1.435h-5.67v-7.7h1.553v6.265h4.117zm7.445-6.264l-2.927 7.7h-1.886l-2.927-7.7h1.653l2.231 6.143 2.242-6.143h1.614zm4.701 0l3.032 7.7h-1.658l-.678-1.794h-3.322l-.679 1.793h-1.619l3.032-7.7h1.892zm-.962 1.517l-1.13 2.976h2.253l-1.123-2.976zm11.817-1.66c-2.398 0-4.09 1.677-4.09 3.992 0 2.316 1.692 3.993 4.09 3.993 1.424 0 2.598-.627 3.288-1.628l-1.268-.902a2.391 2.391 0 0 1-2.031 1.056c-1.374 0-2.454-.973-2.46-2.519 0-1.496 1.047-2.518 2.46-2.518.868 0 1.574.395 2.014 1.061l1.335-.809c-.634-1.077-1.902-1.726-3.338-1.726zm9.013.143l3.033 7.7h-1.658l-.68-1.794h-3.32l-.68 1.793h-1.619l3.033-7.7h1.891zm-.962 1.517l-1.13 2.976h2.254l-1.124-2.976zm5.247-1.517h3.293c1.859 0 2.855.869 2.855 2.342 0 1.265-.89 2.129-2.387 2.272l2.398 3.085h-1.88l-2.271-3.063h-.456v3.063h-1.552v-7.7zm3.265 1.413h-1.713v1.886h1.713c.846 0 1.286-.308 1.286-.957 0-.638-.462-.929-1.286-.929zm4.552-1.413h3.21c2.437 0 4.045 1.528 4.045 3.85 0 2.32-1.608 3.85-4.045 3.85h-3.21v-7.7zm3.193 1.435h-1.641v4.829h1.641c1.642 0 2.437-1.018 2.437-2.415 0-1.413-.795-2.414-2.437-2.414z"/><filter id="o" width="101.3%" height="125%" x="-.7%" y="-6.3%" filterUnits="objectBoundingBox"><feOffset dy="1" in="SourceAlpha" result="shadowOffsetOuter1"/><feColorMatrix in="shadowOffsetOuter1" values="0 0 0 0 0 0 0 0 0 0 0 0 0 0 0 0 0 0 0.2 0"/></filter><path id="r" d="M18.17 147.702c1.922 0 3.489 1.602 3.489 4.278 0 2.669-1.567 4.278-3.49 4.278-1.917 0-3.484-1.61-3.484-4.278 0-2.676 1.567-4.278 3.484-4.278zm0 .881c-1.381 0-2.508 1.21-2.508 3.397 0 2.186 1.127 3.396 2.507 3.396 1.392 0 2.52-1.21 2.52-3.396 0-2.187-1.128-3.397-2.52-3.397zm6.774 7.567l2.061-3.152c-.27.09-.566.132-.868.132-1.67 0-2.905-1.162-2.905-2.717 0-1.55 1.266-2.711 2.99-2.711 1.718 0 2.995 1.161 2.995 2.71 0 .65-.223 1.222-.626 1.848l-2.514 3.89h-1.133zm1.278-3.873c1.17 0 2.031-.774 2.031-1.864 0-1.085-.862-1.86-2.031-1.86-1.17 0-2.031.781-2.031 1.86 0 1.084.861 1.864 2.03 1.864zm9.282-5.302h-.994l-5.118 10.367h.995l5.117-10.367zm1.38 2.645c.398-.548.923-1.043 1.88-1.043 1.122 0 1.749.745 1.749 1.704 0 .715-.35 1.287-.868 1.824l-3.189 3.324v.721h5.31v-.876h-3.93l2.52-2.633c.549-.578 1.133-1.323 1.133-2.36 0-1.471-.982-2.58-2.694-2.58-1.447 0-2.188.799-2.586 1.383l.675.536zm10.892 1.585h-.928v2.324H44.02l3.092-5.714h-1.055l-3.152 5.875v.709h3.942v1.751h.928v-1.75h1.44v-.87h-1.44v-2.324z"/><filter id="q" width="102.9%" height="119.3%" x="-1.4%" y="-4.8%" filterUnits="objectBoundingBox"><feOffset dy="1" in="SourceAlpha" result="shadowOffsetOuter1"/><feColorMatrix in="shadowOffsetOuter1" values="0 0 0 0 0 0 0 0 0 0 0 0 0 0 0 0 0 0 0.2 0"/></filter><linearGradient id="u" x1="-86.724%" x2="124.068%" y1="174.503%" y2="5.539%"><stop offset="0%" stop-color="#FAF6B0"/><stop offset="58.787%" stop-color="#FAEDAD"/><stop offset="100%" stop-color="#FFCC7C"/></linearGradient><path id="t" d="M13.715 20.294H.72v.916h12.995v1.839c0 1 .831 1.828 1.856 1.828h5.57v5.5h.928v-5.5h5.569a1.84 1.84 0 0 0 1.856-1.828V21.21H42.49v-.916H29.494V15.71H42.49v-.917H29.494V10.21H42.49v-.917H29.494V7.456c0-1.001-.83-1.829-1.856-1.829h-5.57v-5.5h-.927v5.5h-5.57a1.84 1.84 0 0 0-1.856 1.829v1.838H.72v.917h12.995v4.583H.72v.917h12.995v4.583zM5.329.128h32.55a4.61 4.61 0 0 1 4.61 4.609v21.03a4.61 4.61 0 0 1-4.61 4.61H5.33a4.61 4.61 0 0 1-4.609-4.61V4.738A4.61 4.61 0 0 1 5.33.127zm9.314 7.328c0-.505.412-.912.928-.912h12.067c.51 0 .928.414.928.912v15.593a.917.917 0 0 1-.928.911H15.57a.926.926 0 0 1-.928-.911V7.456z"/><filter id="s" width="100%" height="100%" x="0%" y="0%" filterUnits="objectBoundingBox"><feOffset in="SourceAlpha" result="shadowOffsetOuter1"/><feColorMatrix in="shadowOffsetOuter1" values="0 0 0 0 0 0 0 0 0 0 0 0 0 0 0 0 0 0 0.1 0"/></filter><filter id="v" width="102.4%" height="103.3%" x="-1.2%" y="-1.7%" filterUnits="objectBoundingBox"><feOffset dy="-1" in="SourceAlpha" result="shadowOffsetInner1"/><feComposite in="shadowOffsetInner1" in2="SourceAlpha" k2="-1" k3="1" operator="arithmetic" result="shadowInnerInner1"/><feColorMatrix in="shadowInnerInner1" values="0 0 0 0 1 0 0 0 0 0.964963227 0 0 0 0 0.889737216 0 0 0 1 0"/></filter><radialGradient id="w" cx="51.562%" cy="55.456%" r="59.26%" fx="51.562%" fy="55.456%" gradientTransform="scale(-.95685 -1) rotate(-80.872 -.662 .619)"><stop offset="0%" stop-color="#713E3E"/><stop offset="44.364%" stop-color="#6E3535"/><stop offset="78.862%" stop-color="#916363"/><stop offset="100%" stop-color="#774141"/></radialGradient><path id="y" d="M250.517 70.72l-6.61-12.427c5.477-1.61 9.294-5.577 9.37-9.507.075-3.331-2.305-5.914-6.083-5.577-3.476.3-4.533 2.62-4.269 2.882.793.749 3.022 5.914-.869 8.16l-3.929-9.92s-.075-.224-.264-.224h-9.558c-.302 0-.226.262-.226.262l6.12 12.09c-5.365 1.535-9.558 5.465-9.785 9.32-.189 3.295 2.191 5.952 5.478 5.952 3.476 0 5.402-3.07 5.1-3.556-.718-.748-2.72-4.79.907-7.336l4.08 9.882s.037.187.226.187h10.2c.227 0 .113-.187.113-.187z"/><filter id="x" width="113.9%" height="128%" x="-6.9%" y="-7%" filterUnits="objectBoundingBox"><feOffset dy="4" in="SourceAlpha" result="shadowOffsetOuter1"/><feColorMatrix in="shadowOffsetOuter1" values="0 0 0 0 0 0 0 0 0 0 0 0 0 0 0 0 0 0 0.2 0"/></filter><path id="A" d="M19.805 104.926l-5.648 2.4v1.744l3.974-1.705v11.62h1.674v-14.06zm4.994 3.272c.664-.893 1.486-1.686 3.032-1.686 1.754 0 2.765 1.18 2.765 2.727 0 1.14-.555 2.072-1.388 2.945l-5.192 5.483v1.319h8.77v-1.596h-6.283l3.984-4.234c.891-.942 1.863-2.182 1.863-3.907 0-2.489-1.645-4.343-4.48-4.343-2.398 0-3.626 1.348-4.28 2.31l1.209.982zm14.863-3.292c-2.061 0-3.518.902-4.31 2.102l1.208 1.021c.595-.833 1.625-1.556 2.993-1.556 1.674 0 2.973.902 2.973 2.36 0 1.586-1.309 2.38-2.963 2.38h-1.784v1.536h1.784c1.803 0 3.27.873 3.27 2.43 0 1.655-1.407 2.439-3.082 2.439-1.338 0-2.596-.536-3.458-1.428l-1.07 1.13c1.01 1.17 2.596 1.864 4.568 1.864 2.457 0 4.796-1.279 4.796-3.936 0-1.616-.981-2.717-2.418-3.272 1.268-.556 2.1-1.617 2.1-3.223 0-2.29-1.852-3.847-4.607-3.847zm15.715 5.79h-1.675v3.838h-4.4l5.074-9.41h-1.902l-5.183 9.707v1.29h6.411v2.865h1.675v-2.866h2.309v-1.586h-2.309v-3.837zm19.599-5.592h-7.58l-.16 7.1H70.3c2.665 0 3.597 1.22 3.597 2.657 0 1.477-1.06 2.727-3.042 2.727-1.368 0-2.725-.615-3.607-1.666l-1.11 1.09c1.17 1.438 2.755 2.172 4.727 2.172 2.616 0 4.776-1.586 4.776-4.462 0-2.21-1.566-4.105-4.826-4.105h-1.992l.12-3.926h6.034v-1.587zm10.701 0L82.1 110.43c.386-.189.902-.327 1.585-.327 2.577 0 4.658 1.943 4.658 4.54 0 2.599-2.101 4.542-4.945 4.542-2.834 0-4.945-1.953-4.945-4.541 0-1.12.387-2.092 1.08-3.173l4.093-6.366h2.051zm-2.279 6.554c-1.843 0-3.22 1.24-3.22 2.985 0 1.745 1.377 2.984 3.22 2.984 1.843 0 3.21-1.239 3.21-2.984 0-1.745-1.367-2.985-3.21-2.985zm16.577-6.554h-9.443v1.587h7.432l-6.144 12.295h1.952l6.203-12.563v-1.319zm7.759-.198c2.675 0 4.855 1.418 4.855 3.847 0 1.676-1.03 2.697-2.338 3.223 1.476.515 2.665 1.546 2.665 3.292 0 2.488-2.329 3.916-5.182 3.916-2.854 0-5.173-1.428-5.173-3.916 0-1.755 1.189-2.787 2.665-3.292-1.317-.526-2.338-1.547-2.338-3.223 0-2.43 2.18-3.847 4.846-3.847zm0 7.823c-1.863 0-3.4.853-3.4 2.45 0 1.606 1.537 2.448 3.4 2.448 1.862 0 3.398-.842 3.398-2.449 0-1.596-1.536-2.449-3.398-2.449zm0-6.256c-1.685 0-3.072.823-3.072 2.36 0 1.606 1.387 2.429 3.072 2.429 1.694 0 3.081-.823 3.081-2.43 0-1.536-1.387-2.36-3.081-2.36zm16.873 12.513l3.578-5.315c-.387.179-.902.318-1.586.318-2.576 0-4.657-1.944-4.657-4.542 0-2.588 2.1-4.541 4.945-4.541 2.834 0 4.954 1.953 4.954 4.541 0 1.12-.396 2.092-1.09 3.173l-4.092 6.366h-2.052zm2.28-6.554c1.843 0 3.22-1.24 3.22-2.985 0-1.745-1.377-2.984-3.22-2.984-1.844 0-3.211 1.249-3.211 2.984 0 1.745 1.367 2.985 3.21 2.985zm13.109-7.506l-5.649 2.4v1.744l3.974-1.705v11.62h1.675v-14.06zm4.993 3.272c.664-.893 1.486-1.686 3.032-1.686 1.754 0 2.765 1.18 2.765 2.727 0 1.14-.555 2.072-1.387 2.945l-5.193 5.483v1.319h8.77v-1.596h-6.283l3.984-4.234c.892-.942 1.863-2.182 1.863-3.907 0-2.489-1.645-4.343-4.479-4.343-2.398 0-3.627 1.348-4.28 2.31l1.208.982zm14.863-3.292c-2.06 0-3.518.902-4.31 2.102l1.209 1.021c.594-.833 1.625-1.556 2.992-1.556 1.675 0 2.973.902 2.973 2.36 0 1.586-1.308 2.38-2.963 2.38h-1.784v1.536h1.784c1.804 0 3.27.873 3.27 2.43 0 1.655-1.407 2.439-3.082 2.439-1.337 0-2.596-.536-3.458-1.428l-1.07 1.13c1.01 1.17 2.596 1.864 4.568 1.864 2.458 0 4.796-1.279 4.796-3.936 0-1.616-.98-2.717-2.418-3.272 1.269-.556 2.101-1.617 2.101-3.223 0-2.29-1.853-3.847-4.608-3.847zm21.72 5.79h-1.675v3.838h-4.4l5.074-9.41h-1.903l-5.182 9.707v1.29h6.411v2.865h1.675v-2.866h2.309v-1.586h-2.31v-3.837zm13.396-5.592h-7.58l-.159 7.1h3.062c2.666 0 3.597 1.22 3.597 2.657 0 1.477-1.06 2.727-3.042 2.727-1.368 0-2.725-.615-3.607-1.666l-1.11 1.09c1.17 1.438 2.755 2.172 4.727 2.172 2.616 0 4.776-1.586 4.776-4.462 0-2.21-1.566-4.105-4.826-4.105h-1.991l.118-3.926h6.035v-1.587zm10.701 0l-3.577 5.325c.387-.189.902-.327 1.586-.327 2.576 0 4.657 1.943 4.657 4.54 0 2.599-2.1 4.542-4.945 4.542-2.834 0-4.944-1.953-4.944-4.541 0-1.12.386-2.092 1.08-3.173l4.092-6.366h2.051zm-2.279 6.554c-1.843 0-3.22 1.24-3.22 2.985 0 1.745 1.377 2.984 3.22 2.984 1.843 0 3.21-1.239 3.21-2.984 0-1.745-1.367-2.985-3.21-2.985zm16.885-6.554h-9.444v1.587h7.432l-6.143 12.295h1.952l6.203-12.563v-1.319z"/><filter id="z" width="102.9%" height="149%" x="-1.5%" y="-14%" filterUnits="objectBoundingBox"><feOffset dy="1" in="SourceAlpha" result="shadowOffsetOuter1"/><feColorMatrix in="shadowOffsetOuter1" result="shadowMatrixOuter1" values="0 0 0 0 0 0 0 0 0 0 0 0 0 0 0 0 0 0 0.2 0"/><feOffset dy="1" in="SourceAlpha" result="shadowOffsetOuter2"/><feGaussianBlur in="shadowOffsetOuter2" result="shadowBlurOuter2" stdDeviation=".5"/><feColorMatrix in="shadowBlurOuter2" result="shadowMatrixOuter2" values="0 0 0 0 0.643149447 0 0 0 0 0.418581122 0 0 0 0 0.29905282 0 0 0 0.303045743 0"/><feOffset in="SourceAlpha" result="shadowOffsetOuter3"/><feGaussianBlur in="shadowOffsetOuter3" result="shadowBlurOuter3" stdDeviation=".5"/><feColorMatrix in="shadowBlurOuter3" result="shadowMatrixOuter3" values="0 0 0 0 0 0 0 0 0 0 0 0 0 0 0 0 0 0 0.2 0"/><feMerge><feMergeNode in="shadowMatrixOuter1"/><feMergeNode in="shadowMatrixOuter2"/><feMergeNode in="shadowMatrixOuter3"/></feMerge></filter></defs><g fill="none" fill-rule="evenodd" transform="translate(18 16)"><mask id="e" fill="#fff"><use xlink:href="#a"/></mask><use fill="#000" filter="url(#b)" xlink:href="#a"/><use fill="url(#c)" xlink:href="#a"/><path fill="url(#d)" d="M32.653 15.605V0H14.09v16.68l.449.094 12.696-1.584 5.42.415zm0 46.733v129.255H14.09V62.86l2.918-.354 15.646-.168zm34.343-45.12V0H48.432v16.743l3.285-.21 5.4.907 5.233-.884 4.646.662zm0 43.099v131.276H48.432V60.53l8.16-.946 10.404.733zM101.34 14.78V0H82.776v16.592l3.559-2.481 5.06 1.485 8.948-.795.997-.02zm0 42.855v133.957H82.776V57.627l3.897-.943 9.313 1.66 5.354-.708zm34.343-41.81V0H117.12v15.24l4.93 1.2 5.18-1.783 6.879 1.707 1.575-.539zm0 45.086v130.681H117.12V62.495l12.51.215 6.054-1.798zm34.344-43.288V0h-18.564v17.032l.962.323 9.474-2.422 8.128 2.691zm0 42.587v131.382h-18.564V59.373l2.448.085 8.75-.99 7.366 1.743zm34.343-42.124V0h-18.564v17.668l6.687.268 8.494.523 3.383-.372zm0 41.798v131.708h-18.564V60.944l4.99.944 13.215-2.085.36.082zm34.344-40.896V0H220.15v18.481l3.114 1.142 10.483-1.983 4.967 1.349zm0 42.521v130.083H220.15V61.108l7.088-1.223 11.476 1.625zm34.343-42.736V0h-18.564v18.17l9.808.873 8.634-.31.122.04zm0 42.69v130.13h-18.564V61.417l2.843-.062 7.489 1.41 6.52-1.493 1.712.19zM307.4 17.207V0h-18.564v18.614l.51.187 8.406-2.455 7.032 2.31 2.616-1.449zm0 40.765v133.621h-18.564V62.487l4.601-1.769 1.41-2.319 5.935-.35 2.48.862 4.138-.94z" mask="url(#e)"/><g mask="url(#e)"><g transform="translate(264.666 146.78)"><use fill="#FFF" xlink:href="#f"/><rect width="41.189" height="32.463" x="1.135" y=".533" stroke="#FFF" stroke-width=".737" rx="2.95"/><g fill-rule="nonzero"><path fill="#000" d="M12.407 28.582V27.02c0-.598-.362-.989-.983-.989-.31 0-.647.105-.88.443-.18-.286-.44-.443-.828-.443a.834.834 0 0 0-.724.365v-.313h-.543v2.499h.543v-1.38c0-.442.233-.65.595-.65s.543.234.543.65v1.38h.544v-1.38c0-.442.258-.65.595-.65.362 0 .543.234.543.65v1.38h.595zm8.046-2.499h-.88v-.754h-.543v.754h-.492v.495h.492v1.145c0 .573.233.911.854.911.233 0 .491-.078.672-.182l-.155-.469a.847.847 0 0 1-.465.13c-.26 0-.363-.156-.363-.416v-1.119h.88v-.495zm4.605-.052a.728.728 0 0 0-.647.365v-.313h-.543v2.499h.543v-1.405c0-.417.181-.651.518-.651.103 0 .233.026.336.052l.155-.52c-.103-.027-.258-.027-.362-.027zm-6.96.26c-.258-.182-.62-.26-1.008-.26-.621 0-1.035.313-1.035.807 0 .417.31.65.854.729l.258.026c.285.052.44.13.44.26 0 .182-.207.313-.569.313s-.647-.13-.828-.26l-.259.416c.285.208.673.312 1.061.312.724 0 1.138-.338 1.138-.807 0-.442-.336-.676-.853-.755l-.259-.026c-.233-.026-.414-.078-.414-.234 0-.182.181-.286.466-.286.31 0 .62.13.776.208l.233-.442zm14.437-.26a.728.728 0 0 0-.647.365v-.313h-.543v2.499h.543v-1.405c0-.417.181-.651.517-.651.104 0 .233.026.337.052l.155-.52c-.103-.027-.259-.027-.362-.027zM25.6 27.333c0 .754.518 1.301 1.32 1.301.362 0 .62-.078.88-.286l-.26-.443a1.042 1.042 0 0 1-.646.235c-.44 0-.75-.313-.75-.807 0-.469.31-.781.75-.807.233 0 .44.078.647.234l.258-.442c-.258-.209-.517-.287-.88-.287-.801 0-1.319.547-1.319 1.302zm5.02 0v-1.25h-.544v.313a.934.934 0 0 0-.776-.365c-.699 0-1.242.547-1.242 1.302 0 .754.543 1.301 1.242 1.301.362 0 .62-.13.776-.364v.312h.543v-1.25zm-1.993 0c0-.443.285-.807.75-.807.44 0 .75.338.75.807 0 .442-.31.807-.75.807-.465-.027-.75-.365-.75-.807zm-6.493-1.302c-.725 0-1.242.52-1.242 1.302 0 .78.517 1.301 1.267 1.301a1.58 1.58 0 0 0 1.01-.338l-.26-.39c-.206.155-.465.26-.724.26-.336 0-.672-.157-.75-.6h1.837v-.207c.026-.807-.44-1.328-1.138-1.328zm0 .469c.336 0 .569.208.62.598h-1.293c.052-.338.285-.598.673-.598zm13.479.833v-2.239h-.544v1.302c-.18-.234-.44-.365-.776-.365-.698 0-1.242.547-1.242 1.302 0 .754.544 1.301 1.242 1.301.362 0 .621-.13.776-.364v.312h.544v-1.25zm-1.993 0c0-.443.285-.807.75-.807.44 0 .751.338.751.807 0 .442-.31.807-.75.807-.466-.027-.75-.365-.75-.807zm-18.161 0v-1.25h-.543v.313a.936.936 0 0 0-.777-.365c-.698 0-1.241.547-1.241 1.302 0 .754.543 1.301 1.241 1.301.363 0 .621-.13.777-.364v.312h.543v-1.25zm-2.018 0c0-.443.284-.807.75-.807.44 0 .75.338.75.807 0 .442-.31.807-.75.807-.466-.027-.75-.365-.75-.807z"/><path fill="#EB001B" d="M18.435 14.476a9.415 9.415 0 0 1 3.544-7.365 9.222 9.222 0 0 0-5.743-2.004c-5.148 0-9.314 4.19-9.314 9.369 0 5.179 4.166 9.37 9.314 9.37a9.222 9.222 0 0 0 5.743-2.005 9.376 9.376 0 0 1-3.544-7.365z"/><path fill="#F79E1B" d="M37.062 14.476c0 5.179-4.165 9.37-9.313 9.37a9.222 9.222 0 0 1-5.744-2.005 9.336 9.336 0 0 0 3.545-7.365 9.415 9.415 0 0 0-3.545-7.365 9.222 9.222 0 0 1 5.744-2.004c5.148 0 9.313 4.216 9.313 9.369z"/><path fill="#FF5F00" d="M22.005 7.11h-.026a9.415 9.415 0 0 0-3.544 7.366 9.376 9.376 0 0 0 3.544 7.365h.026a9.336 9.336 0 0 0 3.545-7.365 9.415 9.415 0 0 0-3.545-7.365z"/></g></g></g><path d="M312.657 55.46c-7.104 3.024-18.709 7.537-28.626 9.405-10.94 2.061-15.23-1.96-16.813-4.524l3.934-.901 10.901 1.214h6.589l4.602-1.77 1.41-2.318 5.934-.35 2.481.862 8.592-1.95.996.332z" mask="url(#e)"/><path mask="url(#e)" d="M7.337 25.739l-2.585-7.876 9.592-1.089 12.697-1.584 5.703.437 2.717 2.236 3.486-2.82 3.938.814 4.509.94 4.129-.264 5.4.907 5.233-.884 7.358 1.048 3.535-.792 1.888.897 1.957-1.788 5.147 1.049 4.1-2.859 5.06 1.485 8.948-.795 4.423-.089 7.078 1.689 3.471-1.601 6.734 1.64 5.18-1.783 6.879 1.707 7.604-2.599 10.714 3.59 9.473-2.422 8.586 2.843 12.712-.213 9.296.373 8.495.523 14.701-1.613 7.576 2.777 10.483-1.983 6.729 1.827 11.77-1.496 12.054 1.072 8.635-.31 2.406.809 2.291-1.584 3.314.175 4.414-.792 3.985 1.46 8.406-2.455 7.033 2.31 3.177-1.76 6.249 2.215 6.01-1.278 6.833 2.879 9.121-1.894v41.934l-3.409-1.125-4.309.514-3.07-1.232-9.873-.727-3.659-1.221-8.592 1.95-2.481-.861-5.934.349-1.41 2.319-4.602 1.769h-6.589l-10.901-1.214-6.521 1.493-7.489-1.41-17.087.372-13.01-1.843-13.073 2.255-10.155-2.337-13.215 2.085-11.269-2.131-7.311.972-9.555-2.261-8.749.99-11.929-.416-12.353 3.668-14.53-.25-10.063-1.383-2.203-3.639-6.847.905-9.313-1.659-16.073 3.887-14.008-.987-23.728 2.752-15.858.17-9.476-9.756 3.508-2.145z"/><path fill="url(#g)" d="M16.057 12.848l5.136 48.73-2.341 1.038s-6.893 1.444-9.34.203C7.065 61.58.946 16.247.946 16.247v-3.071s1.998 2.11 7.587 1.643c5.59-.466 7.524-1.97 7.524-1.97z" mask="url(#e)"/><g mask="url(#e)"><g transform="translate(.9 75.18)"><mask id="k" fill="#fff"><use xlink:href="#h"/></mask><use fill="#000" filter="url(#i)" xlink:href="#h"/><use fill="#C59981" xlink:href="#h"/><path fill="url(#j)" mask="url(#k)" d="M1.856 0h6.498l1.856 2.75H3.713zm-7.425 0H.928l1.857 2.75h-6.498zM9.282 0h6.497l1.857 2.75h-6.498zm7.426 0h6.497l1.856 2.75h-6.497zm7.425 0h6.498l1.856 2.75H25.99zm7.426 0h6.497l1.857 2.75h-6.498zm7.425 0h6.498l1.856 2.75h-6.497zm7.426 0h6.497l1.857 2.75h-6.498zm7.426 0h6.497l1.856 2.75h-6.497zm7.425 0h6.498l1.856 2.75h-6.497zm7.426 0h6.497l1.857 2.75h-6.498zm7.425 0h6.498l1.856 2.75h-6.497zm7.426 0h6.497l1.857 2.75h-6.498zm7.426 0h6.497l1.856 2.75H92.82zm7.425 0h6.498l1.856 2.75h-6.497zm7.426 0h6.497l1.857 2.75h-6.498zm7.425 0h6.498l1.856 2.75h-6.497zm7.426 0h6.497l1.857 2.75h-6.498zm7.426 0h6.497l1.856 2.75h-6.497zm7.425 0h6.498l1.856 2.75h-6.497zm7.426 0h6.497l1.857 2.75h-6.498zm7.425 0h6.498l1.856 2.75h-6.497zm7.426 0h6.497l1.857 2.75h-6.498zm7.426 0h6.497l1.856 2.75h-6.497zm7.425 0h6.498l1.856 2.75h-6.497zm7.426 0h6.497l1.857 2.75h-6.498zm7.425 0h6.498l1.856 2.75h-6.497zm7.426 0h6.497l1.857 2.75h-6.498zm7.426 0h6.497l1.856 2.75h-6.497zm7.425 0h6.498l1.856 2.75h-6.497zm7.426 0h6.497l1.857 2.75h-6.498zm7.425 0h6.498l1.856 2.75h-6.497zm7.426 0h6.497l1.857 2.75h-6.498zm7.426 0h6.497l1.856 2.75h-6.497zm7.425 0h6.498l1.856 2.75h-6.497zm7.426 0h6.497l1.857 2.75h-6.498zm7.425 0h6.498l1.856 2.75h-6.497zm7.426 0h6.497l1.857 2.75h-6.498zm7.426 0h6.497l1.856 2.75h-6.497zm7.425 0h6.498l1.856 2.75h-6.497zm7.426 0h6.497l1.857 2.75h-6.498zm7.425 0h6.498l1.856 2.75h-6.497zm7.426 0h6.497l1.857 2.75h-6.498zm7.426 0h6.497l1.856 2.75h-6.497z"/></g></g><g mask="url(#e)"><g transform="rotate(90 167.993 85.362)"><mask id="n" fill="#fff"><use xlink:href="#l"/></mask><use fill="#000" filter="url(#m)" xlink:href="#l"/><use fill="#C59981" xlink:href="#l"/><path fill="url(#j)" mask="url(#n)" d="M61.261 0h6.498l1.856 2.75h-6.497zm7.426 0h6.497l1.857 2.75h-6.498zm7.425 0h6.498l1.856 2.75h-6.497zm7.426 0h6.497l1.857 2.75h-6.498zm7.426 0h6.497l1.856 2.75H92.82zm7.425 0h6.498l1.856 2.75h-6.497zm7.426 0h6.497l1.857 2.75h-6.498zm7.425 0h6.498l1.856 2.75h-6.497zm7.426 0h6.497l1.857 2.75h-6.498zm7.426 0h6.497l1.856 2.75h-6.497zm7.425 0h6.498l1.856 2.75h-6.497zm7.426 0h6.497l1.857 2.75h-6.498zm7.425 0h6.498l1.856 2.75h-6.497zm7.426 0h6.497l1.857 2.75h-6.498zm7.426 0h6.497l1.856 2.75h-6.497zm7.425 0h6.498l1.856 2.75h-6.497zm7.426 0h6.497l1.857 2.75h-6.498zm7.425 0h6.498l1.856 2.75h-6.497zm7.426 0h6.497l1.857 2.75h-6.498zm7.426 0h6.497l1.856 2.75h-6.497zm7.425 0h6.498l1.856 2.75h-6.497zm7.426 0h6.497l1.857 2.75h-6.498zm7.425 0h6.498l1.856 2.75h-6.497zm7.426 0h6.497l1.857 2.75h-6.498zm7.426 0h6.497l1.856 2.75h-6.497zm7.425 0h6.498l1.856 2.75h-6.497zm7.426 0h6.497l1.857 2.75h-6.498zm7.425 0h6.498l1.856 2.75h-6.497zm7.426 0h6.497l1.857 2.75h-6.498zm7.426 0h6.497l1.856 2.75h-6.497zm7.425 0h6.498l1.856 2.75h-6.497zm7.426 0h6.497l1.857 2.75h-6.498z"/></g></g><g mask="url(#e)"><path fill="#DE1F13" d="M36.97 27.85c.243 1.3.072 2.61.093 3.914.005.357-.344.22-.542.227-3.127.12-5.615 2.18-6.329 5.253-.89 3.837 1.903 7.712 5.806 8.055 1.082.095 1.082.095 1.083 1.212 0 .76-.028 1.522.01 2.28.024.494-.147.617-.623.61-4.933-.08-9.306-3.751-10.231-8.616-1.195-6.28 2.929-11.91 9.36-12.78.147-.02.333.054.411-.154h.963"/><path fill="#024C8B" d="M38.815 46.37c0-.759-.018-1.52.008-2.279.014-.4-.136-.501-.516-.503-.822-.003-1.643.06-2.466-.084-2.423-.425-4.253-2.684-4.065-5.055.209-2.646 2.17-4.597 4.702-4.668.573-.017 1.147-.036 1.718-.001.471.028.639-.12.63-.612-.03-1.45.006-2.901-.02-4.352-.009-.485.086-.652.607-.518 4.599 1.186 7.896 5.52 7.888 10.397-.008 4.855-3.294 9.147-7.875 10.335-.563.146-.65-.003-.622-.518.04-.712.01-1.427.01-2.141"/></g><path fill="#DE1F13" d="M120.928 44.012h-3.72c.664-.25.9-.783.904-1.414.017-2.622.007-5.244-.152-7.949l-3.413 5.538-3.107-5.469c-.22.041-.184.175-.184.279 0 2.488.003 4.976.007 7.464.001.661.193 1.215 1.02 1.54h-3.06c.97-.364 1.028-1.125 1.028-1.913-.001-2.28.007-4.561-.01-6.842-.005-.716-.037-1.452-1.042-1.826h3.924c-.21.322-.123.646.054.97.54.987 1.082 1.973 1.604 2.97.2.383.342.437.581.03.57-.97 1.165-1.925 1.745-2.89.208-.346.36-.702.009-1.108h3.614c-.75.299-.856.937-.859 1.624-.008 2.304-.02 4.607-.012 6.91.003.814-.034 1.667 1.07 2.086zm-28.83-10.628h3.433c-1.45.402-2.425 1.509-3.558 2.376-.277.212-.337.382-.057.653 1.74 1.688 2.753 3.822 3.62 6.041.23.594.448 1.188 1.233 1.567h-3.517c.646-.407.564-.932.403-1.481-.585-1.986-1.702-3.654-3.051-5.184-.07-.08-.18-.172-.272-.174-.338-.006-1.505 1.258-1.505 1.616 0 1.22.005 2.442.007 3.664.001.662.196 1.213 1.011 1.54h-3.86c.97-.337 1.084-.982 1.082-1.707-.01-2.42-.006-4.84-.005-7.26 0-.678-.137-1.278-1.03-1.625h3.59c-1.41 1.026-.528 2.505-.75 3.786 1.25-.857 2.446-1.726 3.378-2.902.251-.317.21-.618-.152-.91zm-30.067 8.782l-.583 1.638c-.07.195-.134.366-.413.365-1.597-.009-3.2.21-4.777-.254-3.427-1.005-4.935-4.388-3.898-7.661.576-1.816 2.014-2.654 3.788-2.99.745-.14 1.496-.183 2.254-.061a8.19 8.19 0 0 0 1.164.078c.346.005.904-.163.997-.016.233.365.309.863.34 1.314.02.29.338.694.036.846-.264.133-.412-.34-.615-.536-1.734-1.666-4.855-1.135-5.92 1.014-1.159 2.34-.204 5.586 2.03 6.903 1.885 1.111 3.705.822 5.385-.854.173-.031.266.017.212.214zM84.993 40.3c.293 1.963-.807 3.311-2.96 3.602-2.135.287-4.28.07-6.459.098.79-.333.9-.974.897-1.7-.012-2.44-.006-4.882-.008-7.323 0-.654-.148-1.23-1.018-1.57.365-.02.552-.039.739-.04 1.718-.001 3.436 0 5.154.002.275 0 .55.002.825.016.977.05 1.58.39 1.729.972.179.695-.132 1.364-.925 1.913-.41.283-.848.523-1.315.81.608.325 1.19.587 1.719.933.828.542 1.467 1.253 1.622 2.287zm-3.56 2.78c1.136-.369 1.797-1.292 1.794-2.483-.003-1.243-1.147-2.727-2.362-3.103-.206-.064-.358-.004-.522.06-.677.266-1.54.373-1.972.862-.423.478-.09 1.362-.135 2.066v.07h.002c0 .573-.01 1.148.003 1.723.016.77.221 1.008.957 1.053.756.047 1.509-.011 2.235-.247zm-3.198-6.997c0 .368.013.737-.003 1.104-.015.314.098.432.4.326.95-.333 1.912-.647 2.708-1.297.435-.354.865-.774.684-1.393-.198-.674-.826-.706-1.407-.743-.114-.007-.228-.004-.343-.006-2.002-.02-2.039.016-2.039 2.009zm-9.498-2.95c3.318.018 5.7 2.438 5.682 5.771-.016 3.024-2.55 5.342-5.82 5.326-3.236-.017-5.64-2.414-5.62-5.605.018-3.12 2.524-5.51 5.758-5.492zm3.083 8.794c1.495-2.297.536-6.197-1.853-7.534-1.766-.99-3.774-.34-4.62 1.504a4.995 4.995 0 0 0-.464 2.214c.028 1.544.44 2.956 1.494 4.118 1.59 1.754 4.206 1.6 5.443-.302zm30.78-8.792c3.26.06 5.626 2.544 5.554 5.833-.065 2.999-2.634 5.32-5.82 5.26-3.27-.062-5.677-2.454-5.635-5.598.044-3.188 2.587-5.557 5.9-5.495zm3.324 8.052c.816-2.084.132-4.866-1.556-6.317-.666-.571-1.425-.911-2.274-.93-1.354.012-2.315.62-2.925 1.776-1.087 2.066-.537 5.168 1.183 6.757 1.878 1.735 4.639 1.098 5.572-1.286z" mask="url(#e)"/><path fill="#024C8B" d="M153.944 33.39c-.59.25-.809.687-.83 1.267-.096 2.67-.105 5.34.008 8.009.03.725.185.906 1.001 1.307h-3.875c.936-.24 1.073-.885 1.075-1.605.004-1.589-.008-3.178.018-4.767.007-.428-.128-.553-.544-.545-1.26.023-2.52.025-3.78 0-.455-.008-.594.153-.587.6.023 1.519-.004 3.04.024 4.559.021 1.123.173 1.353 1.046 1.764h-3.853c.969-.31 1.073-1.028 1.071-1.814-.006-2.349.002-4.698-.005-7.046-.002-.704-.117-1.366-1.061-1.738h3.683c-.729.477-1.167 1.854-.887 2.696.084.252.26.223.435.223 1.352.005 2.703.005 4.055.001.15 0 .374.044.376-.184.007-.775.14-1.574-.291-2.29-.115-.19-.319-.3-.521-.437h3.442zm12.657 10.611h-3.627c.683-.355.63-.847.48-1.384-.575-2.04-1.726-3.738-3.097-5.308-.072-.083-.145-.167-.285-.139-.484.1-1.457 1.293-1.457 1.8.002 1.153.01 2.305.006 3.457-.003.69.177 1.262 1.099 1.566h-3.968c.935-.348 1.102-.961 1.097-1.698-.013-2.396-.01-4.793-.002-7.19.002-.724-.145-1.352-1.045-1.73h3.87c-.916.303-1.068.88-1.055 1.565.016.75.004 1.5.004 2.392 1.227-.99 2.398-1.825 3.325-2.944.27-.325.414-.664-.098-1.014h3.5c-1.46.38-2.444 1.48-3.573 2.358-.23.179-.437.319-.115.629 1.781 1.714 2.806 3.892 3.686 6.154.224.575.442 1.145 1.255 1.486zm-35.07-3.415c.204 1.836-.841 3.032-2.865 3.312-2.075.287-4.162.046-6.318.099 1.03-.336.977-1.176.98-1.958.005-2.44-.015-4.88-.028-7.319-.003-.603-.23-1.064-.852-1.333.185-.012.37-.035.554-.035 2.015-.002 4.041.12 6.041-.052 1-.086 1.095.352 1.233 1.04.126.625.29 1.242.437 1.863-1.202-2.205-3.283-2.183-5.218-1.996-.343.033-.44.272-.434.588.01.575.036 1.153 0 1.726-.028.444.16.546.554.549 1.365.01 2.69.245 3.902.901 1.046.565 1.875 1.35 2.015 2.615zm-1.803.601c.162-1.298-.705-2.533-2.162-3.08-.65-.244-1.333-.304-2.014-.385-.35-.042-.5.082-.488.456.02.736.006 1.473.005 2.21v1.243c-.002 1.728.158 1.87 1.884 1.683 1.565-.17 2.634-.99 2.775-2.127zm9.45 2.801c.79-.72.902-1.425.324-2.41-.843-1.438-2.156-2.126-3.772-2.309-.28-.031-.411.063-.501.33-.307.912-.66 1.809-.95 2.726-.279.884-.157 1.149.712 1.7h-3.246c1.05-.493 1.306-1.4 1.631-2.248a784.823 784.823 0 0 0 2.615-6.948c.18-.48.456-.992-.245-1.446h3.441c-.443.375-.427.79-.26 1.27.94 2.682 1.856 5.371 2.784 8.057.173.5.373.985 1.077 1.277l-3.61.001zm-3.272-5.49c1.083.017 2.013.46 2.98 1.217a81.948 81.948 0 0 0-1.809-5.206l-1.378 3.625c-.075.2-.081.359.207.364z" mask="url(#e)"/><path fill="#713E3E" fill-rule="nonzero" d="M301.94 49.46c-.378-.107-.76-.545-.84-.963-.053-.272.01-.46.41-1.215 1.618-3.048 2.321-5.853 2.321-9.257 0-3.29-.622-5.85-2.168-8.919-.332-.658-.604-1.27-.604-1.358 0-.327.28-.8.584-.986.417-.254 1.115-.207 1.449.099.128.117.462.65.741 1.185a22.108 22.108 0 0 1 2.239 6.854c.231 1.495.277 4.33.093 5.699-.342 2.525-1.026 4.779-2.122 6.986-.662 1.335-1.078 1.884-1.426 1.884-.07 0-.183.016-.252.037-.07.02-.26 0-.425-.047zm-4.502-2.295c-.58-.164-.997-.856-.83-1.375.04-.125.313-.704.606-1.285 1.239-2.461 1.754-5.1 1.502-7.69-.208-2.128-.6-3.47-1.586-5.435-.662-1.317-.693-1.521-.308-2.052.366-.504 1.28-.586 1.76-.158.332.298 1.366 2.401 1.765 3.593 1.321 3.942 1.12 8.175-.573 12.048-.868 1.984-1.476 2.598-2.336 2.354zm-4.643-2.327a1.376 1.376 0 0 1-.75-.897c-.051-.226.037-.477.461-1.314 1.56-3.077 1.577-6.04.052-9.045-.67-1.32-.685-1.582-.118-2.102.28-.257.398-.303.79-.303.659 0 1 .323 1.589 1.5.905 1.81 1.275 3.381 1.272 5.394-.003 2.069-.35 3.489-1.316 5.398-.554 1.093-.828 1.382-1.382 1.456a1.327 1.327 0 0 1-.598-.087zm-4.333-2.167c-.284-.114-.607-.49-.703-.817-.108-.365-.02-.655.406-1.336.547-.877.674-1.347.674-2.493s-.127-1.616-.674-2.493c-.186-.297-.372-.653-.414-.792-.177-.577.318-1.285.982-1.407.562-.103.949.142 1.466.929 1.499 2.278 1.498 5.32 0 7.58-.529.797-1.119 1.078-1.737.829z" mask="url(#e)"/><g mask="url(#e)"><use fill="#000" filter="url(#o)" xlink:href="#p"/><use fill="#FFF" xlink:href="#p"/></g><g mask="url(#e)"><use fill="#000" filter="url(#q)" xlink:href="#r"/><use fill="#FFF" xlink:href="#r"/></g><rect width="44.142" height="14.423" x="13.896" y="126.654" fill="#6C3B3B" mask="url(#e)" opacity=".7" rx="3.6"/><path fill="#FFF" d="M21.97 131.79l-1.456 3.878h-.939l-1.456-3.877h.823l1.11 3.093 1.115-3.093h.803zm2.339 0l1.509 3.878h-.825l-.338-.903h-1.653l-.337.903h-.806l1.509-3.877h.941zm-.479.765l-.562 1.499h1.121l-.559-1.499zm5.431 2.39h-2.048v-3.154h-.773v3.877h2.821v-.723zm1.426-3.154h-.772v3.877h.772v-3.877zm1.005 0h1.597c1.212 0 2.012.77 2.012 1.938 0 1.17-.8 1.94-2.012 1.94h-1.597v-3.878zm1.589.722h-.817v2.432h.817c.816 0 1.212-.512 1.212-1.216 0-.711-.396-1.216-1.212-1.216zm7.083-.722H37.19v.722h1.202v3.155h.772v-3.155h1.201v-.722zm1.426 0h-.772v3.877h.772v-1.595h1.866v1.595h.772v-3.877h-.772v1.562H41.79v-1.562zm3.643 0h1.639c.924 0 1.42.437 1.42 1.18 0 .637-.443 1.071-1.188 1.143l1.193 1.554h-.935l-1.13-1.542h-.227v1.542h-.772v-3.877zm1.625.711h-.853v.95h.853c.42 0 .64-.155.64-.482 0-.32-.23-.468-.64-.468zm5.558-.711h-.775v2.29c0 .637-.36.917-.894.917s-.894-.28-.894-.917v-2.29h-.775v2.329c0 1.072.684 1.618 1.669 1.618.986 0 1.67-.546 1.67-1.618v-2.33z" mask="url(#e)"/><g mask="url(#e)"><g transform="translate(23.386 59.47)"><rect width="41.769" height="30.249" x=".72" y=".128" fill="#713E3E" stroke="#743F3F" stroke-width=".922" opacity=".5" rx="4.609"/><use fill="#000" filter="url(#s)" xlink:href="#t"/><use fill="url(#u)" xlink:href="#t"/><use fill="#000" filter="url(#v)" xlink:href="#t"/></g></g><path fill="#7E5151" d="M200.822 45.036s3.051-3.914 3.051-6.866c0-2.951 3.802-14.215 9.7-15.337 5.897-1.122 15.441-4.568 15.441-4.568s4.869-2.903 9.54-1.451c4.672 1.451 10.697 3.719 15.783 3.719s14.81 2.97 18.774 10.303c3.963 7.334 10.502 13.086 9.115 30.324-1.387 17.239-3.549 23.447-7.954 27.823-4.406 4.376-5.108 4.61-13.35 5.4-8.24.79-11.636 4.017-15.061 3.155-3.425-.863-4.171 1.984-7.176 1.984-3.004 0-5.627-2.622-5.627-2.622s-1.84 2.244-6.977 2.244c-5.136 0-15.232-4.79-21.302-12.928-6.07-8.138-9.226-9.477-9.226-21.373 0-11.897 5.269-19.807 5.269-19.807z" mask="url(#e)" transform="rotate(-20 238.984 57.964)"/><path fill="url(#w)" d="M200.822 45.036s3.051-3.914 3.051-6.866c0-2.951 3.802-14.215 9.7-15.337 5.897-1.122 15.441-4.568 15.441-4.568s4.869-2.903 9.54-1.451c4.672 1.451 10.697 3.719 15.783 3.719s14.81 2.97 18.774 10.303c3.963 7.334 10.502 13.086 9.115 30.324-1.387 17.239-3.549 23.447-7.954 27.823-4.406 4.376-5.108 4.61-13.35 5.4-8.24.79-11.636 4.017-15.061 3.155-3.425-.863-4.171 1.984-7.176 1.984-3.004 0-5.627-2.622-5.627-2.622s-1.84 2.244-6.977 2.244c-5.136 0-15.232-4.79-21.302-12.928-6.07-8.138-9.226-9.477-9.226-21.373 0-11.897 5.269-19.807 5.269-19.807z" mask="url(#e)" transform="rotate(-20 238.984 57.964)"/><ellipse cx="239.905" cy="57.448" fill="#713E3E" mask="url(#e)" rx="33.244" ry="32.873" transform="rotate(-20 239.905 57.448)"/><ellipse cx="239.905" cy="57.448" fill="#713E3E" stroke="#7E5151" stroke-width=".922" mask="url(#e)" rx="30.209" ry="29.873" transform="rotate(-20 239.905 57.448)"/><ellipse cx="239.905" cy="57.448" stroke="#663737" stroke-width=".922" mask="url(#e)" rx="33.623" ry="33.248" transform="rotate(-20 239.905 57.448)"/><g mask="url(#e)" transform="rotate(-20 238.84 57.455)"><use fill="#000" filter="url(#x)" xlink:href="#y"/><use fill="#FFF" xlink:href="#y"/></g><g mask="url(#e)"><use fill="#000" filter="url(#z)" xlink:href="#A"/><use fill="#FFF" xlink:href="#A"/></g></g></svg>