<svg xmlns="http://www.w3.org/2000/svg" width="30" height="34" viewBox="0 0 30 34"><defs><linearGradient id="a" x1="-108.741%" y1="-15.032%" y2="97.216%"><stop offset="0%" stop-color="#FFA2A2"/><stop offset="33.881%" stop-color="#F29D72"/><stop offset="52.39%" stop-color="#FEA46B"/><stop offset="100%" stop-color="#BC1E46"/></linearGradient></defs><path fill="url(#a)" fill-rule="evenodd" d="M14.427 14.3l3.588 1.991 10.435-5.766-3.723-2.068-10.3 5.842zm7.227-7.55L18 4.723l-10.411 5.78 3.765 2.091 10.3-5.842zM19.5 30.456L30 24.608V13.094l-10.5 5.792v11.569zm-3-11.572L6 13.053v11.579l10.5 5.826V18.883zM3.772 9.189l13.5-7.5a1.5 1.5 0 0 1 1.456 0l13.5 7.5A1.5 1.5 0 0 1 33 10.5v15a1.5 1.5 0 0 1-.772 1.311l-13.5 7.5a1.5 1.5 0 0 1-1.456 0l-13.5-7.5A1.5 1.5 0 0 1 3 25.5v-15a1.5 1.5 0 0 1 .772-1.311zm4.51 10.573a1.5 1.5 0 0 1 1.47-2.615l3.737 2.101a1.5 1.5 0 1 1-1.471 2.615l-3.737-2.101z" transform="translate(-3 -1)"/></svg>