<svg xmlns="http://www.w3.org/2000/svg" width="34" height="24" viewBox="0 0 34 24"><defs><linearGradient id="a" x1="-108.741%" y1="-15.032%" y2="97.216%"><stop offset="0%" stop-color="#FFA2A2"/><stop offset="33.881%" stop-color="#F29D72"/><stop offset="52.39%" stop-color="#FEA46B"/><stop offset="100%" stop-color="#BC1E46"/></linearGradient></defs><path fill="url(#a)" fill-rule="evenodd" d="M18 23.197a6 6 0 1 1 0-10.395 6 6 0 1 1 0 10.395zm2.25-8.103A5.97 5.97 0 0 1 21 18a5.973 5.973 0 0 1-.75 2.906 3 3 0 1 0 0-5.811zM1.5 9.004A3.003 3.003 0 0 1 4.501 6H31.5a3 3 0 0 1 3 3.003v17.994A3.003 3.003 0 0 1 31.499 30H4.5a3 3 0 0 1-3-3.003V9.003zM4.5 9v18h27V9h-27zm7.5 9a3 3 0 1 0 6 0 3 3 0 0 0-6 0z" transform="translate(-1 -6)"/></svg>