<svg xmlns="http://www.w3.org/2000/svg" width="36" height="30" viewBox="0 0 36 30"><defs><linearGradient id="a" x1="-108.741%" y1="-15.032%" y2="97.216%"><stop offset="0%" stop-color="#FFA2A2"/><stop offset="33.881%" stop-color="#F29D72"/><stop offset="52.39%" stop-color="#FEA46B"/><stop offset="100%" stop-color="#BC1E46"/></linearGradient></defs><path fill="url(#a)" fill-rule="evenodd" d="M13.5 21.75a11.22 11.22 0 0 1 3.601-8.25H3V24h10.725a11.302 11.302 0 0 1-.225-2.25zm22.5 0C36 27.963 30.963 33 24.75 33a11.249 11.249 0 0 1-9.952-6H3a3 3 0 0 1-3-3.003V6.003A3.003 3.003 0 0 1 3.001 3H30a3 3 0 0 1 3 3.003v8.098a11.21 11.21 0 0 1 3 7.649zM30 6H3v3h27V6zm-5.25 24a8.25 8.25 0 1 0 0-16.5 8.25 8.25 0 0 0 0 16.5zm-2.56-3.44l-3-3a1.5 1.5 0 1 1 2.121-2.12l1.957 1.956 4.921-4.957a1.5 1.5 0 0 1 2.122 2.122l-6 6a1.5 1.5 0 0 1-2.122 0z" transform="translate(0 -3)"/></svg>