<svg viewBox="0 0 51 50" xmlns="http://www.w3.org/2000/svg"><g fill-rule="evenodd"><path d="m21.76 12.58c-1.602.298-3.131.906-4.5 1.79l-.1.06c-.024.006-.044.026-.05.05-5.26 3.44-8.41 10.49-8.53 16.5-.19 9.2 9.37 14.28 17.59 13.82 9.69-.54 15.19-8.6 15.24-17.72.04-10.86-10.19-16.84-19.65-14.5m3.68 30.62c-7.75.44-15.38-4.77-15.23-12.92.307-5.554 2.97-10.713 7.32-14.18.103.014.207.014.31 0 5.51-1.2 9.82-3.2 15.21-.08 4.41 2.55 6.14 7.12 6.14 12 .02 8.37-5.19 14.7-13.74 15.18h-.01"/><path d="m43.71 1.6c-2.94-1.48-6.51-2.12-9.47-.75-1 .47-2.9 1.48-3.62 2.75-.467.449-.781 1.033-.9 1.67-.061.302.086.609.36.75.07.12.161.225.27.31 1.16.89 2.35 1.74 3.54 2.58-1.599-.702-3.278-1.202-5-1.49h-2.48l-3.17.19c-1.08.14-2.15.27-3.24.34-.077.059-.147.126-.21.2-.629.184-1.247.404-1.85.66 1.158-.882 2.266-1.827 3.32-2.83.112-.116.169-.275.156-.436-.013-.161-.096-.308-.226-.404-.038-.2-.14-.383-.29-.52-2.46-2.27-4.38-4-7.82-4.17-3.158-.189-6.279.766-8.79 2.69-4.33 3.76-5.23 10.17-.86 14.27.14.143.33.225.53.23.217.063.451.038.65-.07 2.64-1.529 5.197-3.198 7.66-5-4.534 4.278-7.341 10.07-7.89 16.28-.091 5.228 1.729 10.309 5.12 14.29-.74 1.49-1.57 3.73 0 5 1.31 1.1 4.2.49 4.67-1.29 3.65 1.93 7.93 2.34 12 2.23 3.778-.112 7.446-1.302 10.57-3.43v.1c1 1.36 2.71 2.72 4.44 2 .84-.473 1.222-1.478.91-2.39-.371-.89-.83-1.741-1.37-2.54-.062-.133-.155-.249-.27-.34 4.529-4.823 6.59-11.46 5.59-18-.567-3.949-2.309-7.635-5-10.58 1.85 1.47 3.57 3.16 5.86 3.9.527.198 1.117-.047 1.35-.56 4.81-4.78.75-12.97-4.54-15.64m-39.41 14.13c-3.29-3.6-2.12-8.85 1.78-11.67 1.856-1.122 3.972-1.742 6.14-1.8 3.11-.23 5 1.67 7.12 3.61-5.05 3.13-9.77 7.13-15.04 9.86m8.25 30.27c-.191.349-.51.611-.89.73-.3.1-.82.16-1-.2-.142-.665-.1-1.356.12-2 .548.535 1.14 1.024 1.77 1.46 0 0 .02.01 0 .01m26.76-.4c-.406-.232-.768-.533-1.07-.89h-.05c.3-.26.62-.51.92-.78.42.669.778 1.376 1.07 2.11-.304-.109-.596-.25-.87-.42m4.88-21.51c1.25 5.78-.8 11.93-4.14 16.45-3.65 4.92-9.18 6.84-14.85 7.16-5 .3-10-.59-13.86-4.2-3.86-3.61-5.54-9.53-5.5-14.67 0-5.68 3.11-10.84 6.93-14.5 2.238-2.101 4.963-3.613 7.93-4.4.096.014.194.014.29 0 9.94-1.41 20.73 2.82 23.2 14.18m2.91-8.85c-2.42-1-4.54-3.27-6.66-4.72-2.9-2-6-3.73-8.94-5.64.69-1.26 2.69-2 3.9-2.42 2.725-.911 5.705-.662 8.24.69 4.15 2.15 5.36 8.14 3.46 12.11"/><path d="m26.4 28.37c-.75-3.71-.33-7.58-.38-11.35-.001-.149-.035-.296-.1-.43 0 0 0 0 0-.05-.189-.453-.679-.702-1.156-.587-.477.114-.801.558-.764 1.047-.12 4.06-.61 8.08.26 12.08.072.486.51.832 1 .79 2.46 2.23 4.14 5.18 6.58 7.43.471.419 1.186.397 1.632-.048.445-.445.467-1.161.048-1.632-2.2-2.5-4.24-5.41-7.12-7.25"/></g></svg>