<svg viewBox="0 0 40 53" xmlns="http://www.w3.org/2000/svg"><g fill-rule="evenodd"><path d="m35.55 5.3c-3.92-4.52-10.66-5.7-16.56-4.77-6.13 1.054-11.633 4.391-15.4 9.34-3.42 4.52-3.38 10.1-2.47 15.34 1.22 7 5.07 15.79 11.44 21.24 2.528 2.808 5.703 4.957 9.25 6.26.406.149.862.02 1.13-.32.336.024.667-.096.91-.33 8.936-8.398 14.573-19.717 15.89-31.91.51-5.21-.52-10.62-4.19-14.85m.76 18.14c-1.885 9.973-6.683 19.16-13.79 26.41-2.577-.868-4.983-2.177-7.11-3.87-1.53-1.52-2.91-3.18-4.39-4.88-.142-.156-.349-.238-.56-.22-3.163-4.316-5.418-9.228-6.63-14.44-1.19-4.9-1.39-10.16 1.4-14.61 2.93-4.69 8.58-7.81 14.35-8.93 6.16-1.19 12.4 1.17 15.43 6.23 2.57 4.32 2.14 9.7 1.3 14.32"/><path d="m15.79 5c-.064.029-.119.074-.16.13-5.122 1.469-8.88 5.844-9.56 11.13-1.34 9.08 6.8 15.31 16.41 15.06 10-.26 15.13-8.18 13.62-16.56-.829-4.368-3.683-8.08-7.691-10.01-4.01-1.926-8.691-1.834-12.619.248m6 24.3c-8.18.25-14-5.12-13.51-12.39.49-7.43 7.47-11.9 15.43-11.13.181.025.356-.073.43-.24 1.4.155 2.758.576 4 1.24 2.869 1.736 4.892 4.58 5.59 7.86 1.96 7.68-3.15 14.36-11.99 14.64l.05.02"/></g></svg>