<svg viewBox="0 0 45 40" xmlns="http://www.w3.org/2000/svg"><g fill-rule="evenodd"><path d="m7.642 3.83c-.295.508-.124 1.159.382 1.455.506.296 1.156.125 1.452-.383 2.547-4.255 7.905-2.553 10.537.519 2.258 2.638 2.989 5.898 2.946 9.319-.076 5.889-2.208 14.391-6.716 18.528-2.309 2.119-5.782 3.217-8.813 2.136-3.668-1.302-4.814-5.915-4.882-9.362-.119-6.315 1.927-12.391 4.602-18.01.586-1.226-1.248-2.306-1.834-1.072-3.566 7.498-7.387 18.15-3.218 26.14 3.744 7.174 12.923 5.481 17.261-.145 4.942-6.426 7.803-18.315 4.245-25.864-2.759-5.889-11.802-10.383-15.962-3.268"/><path d="m33.86 20.16c.798-.771 1.242-1.839 1.226-2.95-.016-1.111-.491-2.166-1.311-2.913-1.673-1.439-4.143-1.439-5.816 0-.043.039-.083.082-.119.128l-.102.111c-1.326 1.705-1.244 4.117.195 5.728.771.828 1.856 1.29 2.986 1.27 1.13-.019 2.198-.518 2.941-1.372m-4.627-4.17c.031-.043.06-.089.085-.136l.136-.094c1.825-1.583 4.738.928 2.904 2.902-.334.435-.84.702-1.387.732-.547.029-1.079-.182-1.457-.579-.718-.771-.833-1.928-.28-2.826"/><path d="m41.468 9.294c.526-1.26-1.528-1.813-2.046-.562-3.934 9.456-7.06 19.23-9.34 29.22-.134.511.122 1.043.605 1.256.483.212 1.047.04 1.331-.405l1.443-2.298c.18-.253.23-.576.135-.871-.095-.295-.325-.528-.619-.627 2.184-8.771 5.02-17.366 8.491-25.711"/><path d="m44.21 28.494c-.896-2.08-3-3.372-5.256-3.226-.366.032-.689.255-.849.587-.255.117-.455.327-.56.587-.849 2.02-1.613 4.689 0 6.545 1.406 1.305 3.522 1.471 5.113.401 1.591-1.07 2.24-3.096 1.569-4.894h-.017m-2.963 3.243c-.849.443-2 .391-2.42-.647-.416-1.038.093-2.553.56-3.702 1.193.019 2.276.701 2.81 1.77.234.467.264 1.01.084 1.5-.18.49-.555.884-1.035 1.087v-.009"/></g></svg>