<svg viewBox="0 0 52 52" xmlns="http://www.w3.org/2000/svg"><g fill="#000" fill-rule="evenodd"><path d="m51.32 20.27c0-3.27-.12-6.54-.32-9.81-.13-2 .07-4.51-.7-6.42-1.1-2.76-6.56-2.77-8.86-3.05-6.61-.779-13.274-.997-19.92-.65-2.63.13-5.25.52-7.88.39-2.17-.12-4.32-.25-6.5-.17-3.15.12-5.12 1.15-5.85 4.29-.86 3.7-.28 7.74-.17 11.5 0 1.58.07 3.18.08 4.76-.069 1.029-.069 2.061 0 3.09 0 4.26.08 8.52.45 12.77-.79 5.39 10.5 3.25 13.46 3.16h2.93c-.041.742-.004 1.486.11 2.22.048.698.172 1.389.37 2.06-.58.616-1.121 1.267-1.62 1.95-.653.736-1.105 1.628-1.31 2.59-.032.206.03.415.17.57-.021.045-.038.092-.05.14l-.05.22c-.108.354-.012.739.25 1 1.27 1.18 3.6.86 5.2.82 4.56-.12 9.32-.4 13.88-.21.063.007.127.007.19 0 .54 0 1.07-.4.82-1-.33-.87-.81-1.67-1.16-2.54-.26-.65-.56-1.46-.79-2.07.169-.72.223-1.463.16-2.2.018-.859.109-1.716.27-2.56 5.156.651 10.379.564 15.51-.26.334-.095.595-.356.69-.69.95-6.7.7-13.28.64-19.9m-27.32 29.43c-.51 0-6.38.14-6.49-.09-.041-.102-.098-.197-.17-.28.039-.061.066-.129.08-.2.532-1.398 1.338-2.677 2.37-3.76 3 .74 6.18.36 9.27.55 1.12.07 2.78.71 4 .54.005.437.069.87.19 1.29.182.735.412 1.456.69 2.16-3.28-.53-6.77-.15-9.94-.21m-4.11-7.17c-.16-.8-.2-1.65-.37-2.45 4.51 0 9 .33 13.49.77-.172.768-.292 1.546-.36 2.33-.059.495-.092.992-.1 1.49-.693-.097-1.391-.153-2.09-.17-3.401-.208-6.814-.121-10.2.26.19-.65-.26-1.57-.4-2.23m23.13-3.07c.011-.07.011-.14 0-.21-.16-.66-.1-.85.55-1 .428-.061.862-.061 1.29 0-.023.136-.023.274 0 .41.017.243.017.487 0 .73-.65.06-1.26.07-1.83.07m5.45-.41c-.6.12-1.22.2-1.84.27-.002-.673-.076-1.343-.22-2-.112-.367-.446-.621-.83-.63-1.041-.207-2.12-.113-3.11.27-.58.296-.927.91-.88 1.56-.103.108-.16.251-.16.4v.55c-7.46-.1-14.84-1.37-22.31-1.4-3.09 0-6.2.05-9.28.28-1.06.07-4 .52-5.32-.16-.338-1.481-.592-2.98-.76-4.49-.018-.15-.077-.291-.17-.41-.37-4.24-.05-8.66-.8-12.85-.05-1.57-.1-3.12-.14-4.66-.06-2.33-.19-4.63-.16-6.95 0-3.24.22-6.1 3.95-6.41 2.431-.096 4.865.001 7.28.29 3.043.081 6.089-.019 9.12-.3 7.631-.418 15.285.076 22.8 1.47.73.15 2.47.26 2.82 1.13.48 1.2.29 3 .39 4.26.26 3.67.44 7.35.47 11 0 3.94.19 7.86.13 11.8-.07.93.12 6.75-1.01 6.93"/><path d="m45.69 15.47c0-2.59.3-5.25.2-7.83.035-1.086-.662-2.06-1.7-2.38-3.83-1-8.49.19-12.4.27-6.46.12-13-.55-19.51-.34-.68-.122-1.369-.186-2.06-.19-.563-.1-1.142-.065-1.69.1-.33 0-.66.1-1 .1h-.35v-.1c0 0 0 0-.1 0-.208.03-.38.178-.44.38-.119.15-.18.339-.17.53-.07 4.9.06 9.79 0 14.68-.07 3.92-.25 8.62.79 12.41.039.138.137.253.268.312.131.06.282.059.412-.002.046.008.094.008.14 0 12.08-.57 24.13 2.11 36.2 1 .201-.014.395-.084.56-.2.244.088.515.058.734-.081.219-.139.362-.371.386-.629.36-2.16-.1-4.27-.2-6.43-.21-3.84-.05-7.74-.07-11.6m-1.69 16.93c-2.7-.12-5.5.35-8.23.39-3.41 0-6.8 0-10.2-.23-5.81-.39-11.56-1.13-17.36-.37.15-8.49-.05-17 0-25.52h1.44c5.134.509 10.291.746 15.45.71 4.707.128 9.417.001 14.11-.38 2-.17 4.79-.74 4.68 2.12-.08 2.12-.23 4.2-.23 6.33v9c-.03 2.55.58 5.39.34 7.95"/><path d="m18 20.89c1.021-.768 1.606-1.983 1.57-3.26-.127-.907-.64-1.714-1.407-2.214-.767-.5-1.712-.645-2.593-.396-1.422.604-2.319 2.027-2.25 3.57-.002 1.074.618 2.052 1.59 2.51-.828.276-1.535.831-2 1.57-1.08.31-2.39 2.64-1 3.37 1 .52 2.24.25 3.31.25 2 0 3.91 0 5.86-.13.366-.01.66-.304.67-.67.189-2.292-1.467-4.323-3.75-4.6"/><path d="m38.45 15.88c-1.312-.141-2.634-.165-3.95-.07-1.7.16-3 .81-4.78.32-.903-.343-1.848-.562-2.81-.65-1.4 0-2.67 1-4.06 1.12-.237 0-.43.193-.43.43 0 .237.193.43.43.43 1.49.2 2.59-.38 4.06-.53 1.12-.11 2.45.86 3.59 1 1.168.115 2.348-.004 3.47-.35 1.56-.37 3.11 0 4.66-.34.83-.16.58-1.3-.18-1.36"/><path d="m30.5 20.12c-2.447-.668-5.062-.28-7.21 1.07-.248.172-.322.506-.17.767.151.261.478.362.75.233 2.74-1.34 5-.46 7.85-.14 1.55.18 3.87-.68 5.28-1.29.163-.114.261-.301.261-.5 0-.199-.097-.386-.261-.5-2-1.16-4.31.85-6.5.36"/><path d="m36.25 24.2c-2.923-.187-5.858-.046-8.75.42-.64.11-.5 1.22.15 1.14 2.85-.35 5.73-.32 8.59-.48.259-.048.448-.272.451-.536.002-.264-.182-.492-.441-.544"/></g></svg>