<svg viewBox="0 0 47 48" xmlns="http://www.w3.org/2000/svg"><g fill-rule="evenodd"><path d="m46.26 18.69c-2.21-15.52-18.06-21.89-31.06-16.59-2.225.766-4.28 1.959-6.05 3.51l-.14.11c0 0 0 .06-.07.08-6.78 6-9.78 16.73-8.7 25.35 1.66 13.17 16.38 18.39 28 16 13.71-2.8 19.86-15.46 18.02-28.46m-19.39 26.31c-11 2.25-22.95-3.59-24.43-15.25-1-7.57 2.1-16 7.46-21.75.153.001.305-.022.45-.07 7.6-2.86 13.33-6.62 21.66-3.31 6.84 2.71 10.27 8.87 11.3 15.8 1.77 12-4.31 22.11-16.44 24.58"/><path d="m16.58 23.34c0-.14.06-.29.09-.43.209-.164.356-.393.42-.65.464-2.269.665-4.585.6-6.9.005-.301-.102-.593-.3-.82-.07-1.2-2-1.45-2.28-.2-.11.6-.19 1.2-.25 1.81-.558 2.24-.823 4.542-.79 6.85.007.635.479 1.169 1.108 1.254.629.085 1.226-.304 1.402-.914"/><path d="m26.71 21.82v.47c-.008.187.041.371.14.53v.53c.024.638.504 1.166 1.137 1.25.633.084 1.234-.3 1.423-.91 1.146-3.189 1.347-6.64.58-9.94-.32-1.41-2.17-1.15-2.61 0-.645 1.848-.904 3.808-.76 5.76-.02.771.01 1.543.09 2.31"/><path d="m32.83 31.46c-.12.3-.25.59-.39.88-.003.03-.003.06 0 .09-3.6 7.16-12.15 7.88-18 3.58-1.1-1.41-1.56-3.31-2.39-4.86-.369-.634-1.15-.896-1.827-.612-.676.284-1.037 1.025-.843 1.732.07.2.13.41.2.61.255 1.166.738 2.27 1.42 3.25 2.24 3.85 5.87 5.83 11 6.15 6.66.4 11.5-4.18 13.87-10 .76-1.87-2.27-2.66-3.04-.82"/></g></svg>