<svg viewBox="0 0 51 40" xmlns="http://www.w3.org/2000/svg"><g fill-rule="evenodd"><path d="m48.27 3.936c-1.325-1.567-3.217-2.548-5.264-2.727-4.221-.654-8.48-1.027-12.75-1.118-8.77-.283-17.546.271-26.21 1.655-.309-.158-.674-.162-.986-.012-.313.15-.537.437-.607.776-2.987 10.218-2.067 21.664-.911 32.06.027.49.419.882.911.909 1.366 2.309 4.891 2.727 7.359 2.982 5.255.473 10.519-.355 15.746-.7 4.08-.264 8.287.818 12.34 1.182 1.821.182 7.705 1.1 10.02-.555.363.183.793.174 1.148-.025.355-.199.587-.561.619-.966.419-6.364.483-12.727.911-19.09.346-4.473.747-10.591-2.322-14.373m-.264 15.845c-.373 5.373-.273 10.7-.51 16.06-.03-.003-.061-.003-.091 0-3.042 1.818-7.614.909-10.929.536-3.315-.373-6.685-1.191-10.02-1.073-3.925.155-7.85.764-11.776 1.045-2.568.182-9.326.964-11.211-1.755.013-.106.013-.213 0-.318-1.985-10.127-.164-20.909 1.293-30.909 7.286-.336 14.635-.909 21.976-.909 3.854.001 7.705.199 11.539.591 2.86.282 6.53.2 8.315 2.827 2.504 3.755 1.676 9.682 1.421 13.9h-.009"/><path d="m7.532 20.773c2.905.909 5.674.109 8.552-.645.316-.06.531-.354.492-.673 1.211-4.309-.364-8.545-.628-12.882-.004-.23-.163-.429-.387-.484-.224-.055-.457.046-.569.248-1.776-1.173-5.291.436-7.122.164-.174-.022-.345.06-.437.209-.117-.213-.352-.333-.593-.303-.241.03-.439.204-.5.439-.375 1.486-.552 3.01-.528 4.545-.214 2.997-.046 6.01.501 8.964.052.26.239.473.49.559.251.086.529.032.731-.141m-.273-13.218l.118-.136c.064-.075.113-.162.146-.255h.046c.98.362 2.039.459 3.069.282.747-.045 1.494-.109 2.249-.1.662.094 1.317.237 1.958.427.048.007.097.007.146 0 .191 3.7 1.211 7.418.255 11.06-2.486.582-4.799 1.364-7.368.764-.455-3.035-.62-6.106-.492-9.173 0-.718 0-1.445.064-2.173.064-.727.255-.645-.328-.691.054.014.112.011.164-.009h-.027"/><path d="m19.298 8.909c4.04.909 8.297.318 12.386 0 2.186-.191 4.381-.264 6.575-.218 2.231.073 3.734 1 5.774 1.482.242.059.495-.03.647-.227.152-.197.173-.464.054-.682-1.512-3.01-7.85-2.3-10.491-2.145-4.891.282-9.936 1.536-14.836.964-.464-.027-.546.718-.109.827"/><path d="m35.17 14.04c-5.03-.136-10.118.127-15.01-1.327-.528-.155-.71.618-.219.8 7.814 3.01 16.311.855 24.307 2.318.492.1 1-.527.537-.909-2.158-1.864-6.931-.818-9.617-.882"/><path d="m33.423 19.4c-4.317.073-8.624.136-12.932.482-.126 0-.228.102-.228.227 0 .126.102.227.228.227 3.962.318 7.932.4 11.903.473 3.534.073 7.604.682 11.07-.155.241-.07.406-.291.406-.541 0-.25-.165-.471-.406-.541-3.151-.764-6.812-.236-10.04-.173"/><path d="m41.492 26.364c.242-.077.406-.301.406-.555 0-.254-.164-.478-.406-.555-5.328-.736-10.865-.318-16.229-.291-6.375 0-12.677.082-19.02.291-.307 0-.556.248-.556.555 0 .306.249.555.556.555 5.956.191 11.912.236 17.877.282 5.728.055 11.675.5 17.367-.282"/><path d="m44.625 30.909c-5.819-.518-11.73-.227-17.577-.227-6.293 0-12.805-.291-19.05.518-.179 0-.323.144-.323.323 0 .178.145.323.323.323 6.257.818 12.75.5 19.05.509 5.847 0 11.757.309 17.577-.209.342 0 .619-.277.619-.618 0-.341-.277-.618-.619-.618"/></g></svg>