<svg viewBox="0 0 47 39" xmlns="http://www.w3.org/2000/svg"><g fill="none" fill-rule="evenodd"><path d="m46.64 17.87c-.11-4.89-.22-9.95-1.73-14.64-.148-.541-.639-.917-1.2-.92-1.639.09-3.281.09-4.92 0-11.58-2.31-23.47-2.31-35.24-1.5-.4.031-.743.299-.87.68-.245.024-.489.061-.73.11-.12.027-.23.086-.32.17-.279.163-.444.467-.43.79 0 11-1.68 22 .25 32.88.019.212.126.406.296.536.169.129.385.182.594.144.148.185.373.292.61.29 9.34.41 18.75.5 28.05 1.52 3.75.41 10.9 2.21 14.2-.74.341.034.681-.078.934-.309.254-.231.397-.558.396-.901.07-6.04.24-12.05.11-18.11m-42.87-14.11c1.715.228 3.453.201 5.16-.08 3.884-.449 7.79-.683 11.7-.7 6.56 0 13 1.66 19.52 1.87.76.17 1.52.35 2.28.56.165.036.335.036.5 0 .07.27.12.53.18.81-2.67 9.24-12 13.61-20.37 17-.056-.168-.213-.28-.39-.28l-.38-.06c-.06-.061-.127-.115-.2-.16-3.805-2.432-7.249-5.387-10.23-8.78-1.11-1.21-2.19-2.43-3.28-3.65-1.31-1.59-2.58-3.18-3.84-4.79-.187-.269-.493-.429-.82-.43-.116-.442-.055-.912.17-1.31m-.64 4.14c.4.53.86 1 1.33 1.55 2.789 3.625 5.865 7.02 9.2 10.15-.075.061-.142.132-.2.21-.78 1.1-1.6 2.17-2.43 3.22l-.4.52c-2.57 3.24-5.25 6.39-7.55 9.84-.94-8.47-.08-16.98.05-25.49m33.87 28.22c-2.45-.14-4.88-.56-7.33-.75-8.212-.667-16.454-.888-24.69-.66 1.49-2 2.92-4 4.35-6 2-2.55 4.11-5 6-7.71 1.641 1.379 3.386 2.63 5.22 3.74.381.281.907.256 1.26-.06.153.095.341.113.51.05 3.483-.975 6.87-2.263 10.12-3.85.189.112.36.25.51.41 1.93 5.14 4.06 10.89 7.84 14.89-1.263.064-2.529.044-3.79-.06m7.06-1.18c-.225.257-.492.473-.79.64-2-3.43-4.23-6.7-6-10.25-.92-1.82-1.24-4.1-2.66-5.56 3.872-2.089 7.08-5.229 9.24-9.06.25 2.67.29 5.38.34 8 .07 5.46-.11 10.83-.19 16.23h.06" fill="#000"/></g></svg>