<svg viewBox="0 0 39 47" xmlns="http://www.w3.org/2000/svg"><g fill-rule="evenodd"><path d="m37.09 25.23c-1.465-4.322-3.637-8.37-6.426-11.981 2.269-.443 3.377-2.306 2.987-4.984-.083-.605-.229-1.199-.434-1.774-1.773-1.437-3.457-3.192-3.545-5.418-.166-.242-.41-.42-.691-.505-.859-.345-1.803-.416-2.703-.204-1.072.266-1.383 1.304-2.659 1.33-2.659.044-5.15-1.605-7.977-1.454-4.928.275-4.201 4.851-2.145 7.733-4.432-1.649-10.947-3.37-12.631 1.188-.057.259.027.528.219.709.192.182.466.249.721.177.725-.294 1.417-.662 2.065-1.1 1.25-.754 2.925-.665 4.325-.576 1.745.17 3.464.542 5.123 1.108-5.061.514-11.301 2.217-12.675 7.094-.056.26.046.529.261.686.215.157.501.173.732.041 2.251-1.437 3.687-3.547 6.205-4.762 1.336-.627 2.731-1.117 4.166-1.463-5.575 5.374-9.298 13.169-9.475 20.547-.257 9.595 8.536 14.987 17.949 14.818 5.38-.106 10.849-2.048 14.59-5.738 4.423-4.283 3.935-10.225 2.02-15.475m-20.697-22.835c1.631 0 3.43.772 4.964 1.206 1 .366 2.078.49 3.138.364 1.135-.284 2.154-1.286 3.35-1.215.703 1.279 1.531 2.485 2.473 3.6.691.807.222.337.612 1.366.789 2.102.355 3.325-2.251 3.423-3.395-3.139-7.64-4.665-12.71-2.483-1.259-1.747-3.732-6.172.425-6.261m14.785 38.602c-3.927 2.767-9.209 3.547-13.969 3.139-9.147-.772-13.455-7.981-12.02-15.962 1.072-6.101 4.609-11.954 8.952-16.627.23.094.488.094.718 0 .993-.39 1.941-.727 2.854-.984-.206.228-.398.468-.576.718-.691.949-1.631 2.953-1.117 4.088.319.718 1.489 1.135 1.95.248.461-.887.39-1.907.815-2.802.125-.26.276-.507.452-.736.461-1.312 1.684-2.581 2.969-2.341.886.151 1.631 1.481 1.888 2.208.218.649.332 1.328.337 2.01.443 1.046 2.402.887 2.26-.381-.074-.568-.217-1.125-.425-1.658.415.336.812.694 1.188 1.073 3.545 3.636 5.983 9.214 7.64 13.834 1.923 5.365 1.09 10.659-3.918 14.171"/><path d="m24.552 19.935c-1.813-.787-3.854-.872-5.726-.239-.142-.397-.544-.639-.961-.579-.417.06-.734.406-.758.827v.248c-.49 0-.886.397-.886.887 0 .49.397.887.886.887l.16 6.988c-.179.268-.179.618 0 .887l.089 3.875-2.872.248c-.886.071-.886 1.845 0 1.774l2.916-.248.053 2.456c0 .49.397.887.886.887.49 0 .886-.397.886-.887l-.062-2.616 3.262-.284c.886-.071.886-1.845 0-1.774l-3.306.284-.053-2.518c3.359 1.082 7.339-2.802 7.977-6.06.427-2.055-.6-4.136-2.491-5.05m-5.469 9.06l-.168-7.476c2.535-.638 6.08-.984 6.435 2.235.275 2.536-3.652 7.04-6.267 5.25v-.009"/></g></svg>