<svg xmlns="http://www.w3.org/2000/svg" viewBox="0 0 46 40" xmlns:xlink="http://www.w3.org/1999/xlink"><defs><path id="a" d="M31.795 12.83c.054-.008.108-.01.16-.01.463 0 .885.29 1.045.736 2.346-.793 4.904-.686 7.177.3 2.37 1.14 3.657 3.75 3.122 6.325-.802 4.08-5.79 8.95-10 7.592l.065 3.158 4.146-.355c1.11-.09 1.11 2.133 0 2.222l-4.09.356.08 3.28c0 .613-.497 1.11-1.112 1.11-.613 0-1.11-.497-1.11-1.11l-.067-3.08-3.655.31c-1.11.09-1.11-2.132 0-2.222l3.6-.31-.11-4.857c-.225-.338-.225-.776 0-1.113l-.2-8.758c-.615 0-1.112-.498-1.112-1.112 0-.614.497-1.112 1.11-1.112v-.31c.03-.53.43-.963.952-1.038zm1.527 12.398c.52.356 1.082.514 1.658.514 3.05 0 6.486-4.42 6.197-7.095-.445-4.036-4.89-3.602-8.066-2.8l.212 9.37v.01z"/></defs><g fill="#000" fill-rule="evenodd" transform="translate(1 1)"><path d="M7.363 3.648C8.883 1.05 11.05 0 13.33 0c3.96 0 8.244 3.178 9.996 6.916 3.557 7.55.696 19.44-4.246 25.865-4.338 5.626-13.516 7.32-17.26.145-4.17-7.99-.35-18.647 3.218-26.144.586-1.234 2.42-.153 1.834 1.072C4.197 13.47 2.15 19.546 2.27 25.862c.068 3.445 1.213 8.06 4.882 9.36 3.03 1.082 6.502-.016 8.813-2.135 4.508-4.137 6.64-12.64 6.715-18.53.043-3.42-.687-6.68-2.945-9.317-2.633-3.073-7.99-4.775-10.538-.52-.296.51-.944.68-1.45.384-.507-.296-.68-.948-.384-1.456z"/><use xlink:href="#a"/></g></svg>